<svg xmlns="http://www.w3.org/2000/svg" viewBox="0 0 1080 1020" font-family="ui-monospace, 'Segoe UI Mono', 'Noto Sans Mono CJK KR', monospace">
  <rect width="1080" height="1020" fill="#16213e"/>

  <defs>
    <style>
      .px-border { stroke: #4fc3f7; stroke-width: 2; fill: none; }
      .px-border-dim { stroke: #385b7c; stroke-width: 2; fill: none; }
      .px-border-dash { stroke: rgba(255,255,255,0.28); stroke-width: 2; stroke-dasharray: 4 3; fill: none; }
      .panel-bg { fill: #0f3460; }
      .deep-bg { fill: rgba(0,0,0,0.40); }
      .input-bg { fill: rgba(0,0,0,0.45); }
      .accent { fill: #7fd4ff; }
      .accent-fill { fill: #00d4ff; }
      .white { fill: #ffffff; }
      .mute { fill: rgba(255,255,255,0.60); }
      .dim { fill: rgba(255,255,255,0.38); }
      .emerald { fill: #34d399; }
      .emerald-bg { fill: rgba(52,211,153,0.15); stroke: #34d399; stroke-width: 2; }
      .amber { fill: #fbbf24; }
      .amber-bg { fill: rgba(251,191,36,0.12); stroke: #fbbf24; stroke-width: 2; }
      .red { fill: #f87171; }
      .red-bg { fill: rgba(248,113,113,0.12); stroke: #f87171; stroke-width: 2; }
      .shield { fill: #34d399; }
      .title { font-size: 15px; font-weight: bold; letter-spacing: 0.1em; text-transform: uppercase; }
      .h2 { font-size: 13px; font-weight: bold; letter-spacing: 0.08em; text-transform: uppercase; }
      .label { font-size: 10px; font-weight: bold; letter-spacing: 0.08em; text-transform: uppercase; }
      .small { font-size: 10px; }
      .tiny { font-size: 9px; letter-spacing: 0.04em; }
      .input-txt { font-size: 12px; font-family: 'Consolas', 'Noto Sans Mono CJK KR', monospace; }
    </style>
  </defs>

  <!-- 헤더 -->
  <text x="32" y="36" class="accent title">GitCredentialsSection · UI 시안</text>
  <text x="32" y="56" class="mute small">2026-04-18 · 프로젝트 설정 페이지 · 토큰 보관 · provider 선택 · 삭제 확인</text>

  <!-- ═════════════════════════════════════════ ① 기본 상태 (저장됨 · 마스킹) -->
  <g transform="translate(32, 80)">
    <text x="0" y="0" class="accent label">① 기본 상태 — 토큰이 서버에 저장되어 있음 (마스킹)</text>
    <rect x="0" y="10" width="500" height="430" class="panel-bg"/>
    <rect x="0" y="10" width="500" height="430" class="px-border"/>

    <!-- 섹션 헤더: 자물쇠 아이콘 + 타이틀 + 보안 배지 -->
    <g transform="translate(16, 26)">
      <!-- 자물쇠 아이콘 -->
      <rect x="0" y="4" width="18" height="14" fill="none" stroke="#7fd4ff" stroke-width="2"/>
      <path d="M 3 4 Q 3 -2 9 -2 Q 15 -2 15 4" fill="none" stroke="#7fd4ff" stroke-width="2"/>
      <rect x="8" y="9" width="2" height="4" fill="#7fd4ff"/>
      <text x="28" y="16" class="accent h2">Git 자격증명</text>
      <!-- "저장됨" 배지 -->
      <rect x="142" y="2" width="74" height="18" class="emerald-bg"/>
      <text x="149" y="14" class="emerald tiny" font-weight="bold">✓ 저장됨</text>
      <!-- 보안 배지 (암호화 저장) -->
      <g transform="translate(226, 2)">
        <rect x="0" y="0" width="160" height="18" fill="rgba(52,211,153,0.08)" stroke="#34d399" stroke-width="1"/>
        <path d="M 6 9 L 10 4 L 14 9 L 14 14 Q 14 16 10 16 Q 6 16 6 14 Z" fill="none" stroke="#34d399" stroke-width="1.5"/>
        <text x="22" y="12" class="emerald tiny">서버 AES-256 암호화</text>
      </g>
    </g>
    <text x="16" y="58" class="mute tiny">이 프로젝트의 원격 저장소 접근 토큰. 서버 DB 에만 암호화되어 저장되며 UI 에는 절대 노출되지 않습니다.</text>

    <!-- 구분선 -->
    <line x1="16" y1="72" x2="484" y2="72" stroke="rgba(255,255,255,0.15)" stroke-width="1" stroke-dasharray="2 3"/>

    <!-- Provider 드롭다운 (닫힘) -->
    <g transform="translate(16, 86)">
      <text x="0" y="0" class="accent label">제공자 Provider</text>
      <rect x="0" y="8" width="220" height="36" class="input-bg" stroke="#4fc3f7" stroke-width="2"/>
      <!-- 깃허브 로고 흉내 -->
      <circle cx="18" cy="26" r="9" fill="#ffffff"/>
      <path d="M 18 22 L 18 30 M 14 26 L 22 26" stroke="#0f3460" stroke-width="1.5"/>
      <text x="34" y="31" class="white input-txt">GitHub</text>
      <text x="120" y="31" class="dim tiny">github.com</text>
      <!-- 드롭다운 화살표 -->
      <path d="M 200 23 L 208 23 L 204 28 Z" fill="#7fd4ff"/>
    </g>

    <!-- 라벨 입력 (채워진 값) -->
    <g transform="translate(250, 86)">
      <text x="0" y="0" class="accent label">라벨 Label</text>
      <rect x="0" y="8" width="220" height="36" class="input-bg" stroke="#4fc3f7" stroke-width="2"/>
      <text x="10" y="31" class="white input-txt">LLMTycoon · 회사 GitHub</text>
    </g>

    <!-- 토큰 마스킹 표시 -->
    <g transform="translate(16, 152)">
      <text x="0" y="0" class="accent label">액세스 토큰 Access Token</text>
      <!-- 저장됨 인디케이터 -->
      <text x="160" y="0" class="emerald tiny">· 서버에 저장됨 (원본 비노출)</text>
      <rect x="0" y="8" width="454" height="36" class="input-bg" stroke="#34d399" stroke-width="2"/>
      <!-- 마스킹 문자열 -->
      <text x="12" y="31" class="input-txt" fill="#d1fae5">ghp_••••••••••••••••••••••••••••••••••••</text>
      <!-- 길이 힌트 -->
      <text x="330" y="31" class="mute tiny">(40자)</text>
      <!-- 눈 아이콘 (비활성, 마스킹은 영구) -->
      <g transform="translate(418, 18)">
        <ellipse cx="12" cy="8" rx="10" ry="6" fill="none" stroke="rgba(255,255,255,0.35)" stroke-width="1.5"/>
        <circle cx="12" cy="8" r="2.5" fill="rgba(255,255,255,0.35)"/>
        <line x1="2" y1="18" x2="22" y2="-2" stroke="rgba(255,255,255,0.35)" stroke-width="1.5"/>
      </g>
      <!-- 툴팁 화살표 -->
      <text x="0" y="58" class="dim tiny">▸ 보안상 원본 토큰은 저장 후 UI 에 다시 노출되지 않습니다. 교체가 필요하면 [재발급 저장] 을 사용하세요.</text>
    </g>

    <!-- 작업 버튼 스트립 -->
    <g transform="translate(16, 236)">
      <!-- 재발급 저장 버튼 (accent) -->
      <rect x="0" y="0" width="140" height="36" fill="#00d4ff"/>
      <rect x="0" y="34" width="140" height="2" fill="#0099cc"/>
      <text x="22" y="22" font-size="11" font-weight="bold" fill="#000000" letter-spacing="0.08em">↻ 재발급 저장</text>
      <!-- 연결 테스트 버튼 -->
      <rect x="152" y="0" width="140" height="36" fill="rgba(0,0,0,0.3)" stroke="#4fc3f7" stroke-width="2"/>
      <text x="176" y="22" font-size="11" font-weight="bold" fill="#7fd4ff" letter-spacing="0.08em">⚡ 연결 테스트</text>
      <!-- 삭제 버튼 (위험) -->
      <rect x="336" y="0" width="118" height="36" fill="rgba(0,0,0,0.3)" stroke="#f87171" stroke-width="2"/>
      <text x="356" y="22" font-size="11" font-weight="bold" fill="#f87171" letter-spacing="0.08em">🗑 삭제</text>
    </g>

    <!-- 마지막 활동 요약 -->
    <g transform="translate(16, 294)">
      <rect x="0" y="0" width="454" height="56" class="deep-bg"/>
      <rect x="0" y="0" width="454" height="56" class="px-border-dim"/>
      <text x="12" y="18" class="mute label">마지막 활동</text>
      <text x="12" y="36" class="white small">✓ 연결 테스트 성공 · 5분 전</text>
      <text x="12" y="48" class="dim tiny">· scope: repo, workflow · 2026-04-18 13:32 KST</text>
    </g>

    <!-- 보안 설명 박스 -->
    <g transform="translate(16, 362)">
      <rect x="0" y="0" width="454" height="62" fill="rgba(52,211,153,0.06)" stroke="#34d399" stroke-width="1"/>
      <!-- 방패 아이콘 -->
      <path d="M 18 12 L 28 16 L 28 28 Q 28 36 18 42 Q 8 36 8 28 L 8 16 Z" fill="rgba(52,211,153,0.2)" stroke="#34d399" stroke-width="2"/>
      <path d="M 14 26 L 17 30 L 23 22" stroke="#34d399" stroke-width="2" fill="none"/>
      <text x="44" y="22" class="emerald label">보안 보장</text>
      <text x="44" y="38" class="white tiny">• 토큰은 AES-256-GCM 으로 서버에서만 암호화 저장 · 클라이언트 전송 전 HTTPS 보호</text>
      <text x="44" y="52" class="white tiny">• UI·로그·에러 메시지 어느 곳에도 원본 토큰을 절대 노출하지 않습니다 (redactTokens 적용)</text>
    </g>
  </g>

  <!-- ═════════════════════════════════════════ ② 입력/추가 상태 -->
  <g transform="translate(548, 80)">
    <text x="0" y="0" class="accent label">② 추가/재발급 — 입력 중 (미저장 · 프리픽스 경고)</text>
    <rect x="0" y="10" width="500" height="430" class="panel-bg"/>
    <rect x="0" y="10" width="500" height="430" class="px-border"/>

    <!-- 헤더 + 미저장 배지 -->
    <g transform="translate(16, 26)">
      <rect x="0" y="4" width="18" height="14" fill="none" stroke="#7fd4ff" stroke-width="2"/>
      <path d="M 3 4 Q 3 -2 9 -2 Q 15 -2 15 4" fill="none" stroke="#7fd4ff" stroke-width="2"/>
      <rect x="8" y="9" width="2" height="4" fill="#7fd4ff"/>
      <text x="28" y="16" class="accent h2">Git 자격증명</text>
      <!-- 미저장 경고 배지 -->
      <rect x="142" y="2" width="88" height="18" class="amber-bg">
        <animate attributeName="opacity" values="0.7;1;0.7" dur="1.4s" repeatCount="indefinite"/>
      </rect>
      <text x="148" y="14" class="amber tiny" font-weight="bold">⚠ 미저장</text>
      <!-- 암호화 문구 (여전히 표시) -->
      <g transform="translate(240, 2)">
        <rect x="0" y="0" width="146" height="18" fill="rgba(52,211,153,0.08)" stroke="#34d399" stroke-width="1"/>
        <path d="M 6 9 L 10 4 L 14 9 L 14 14 Q 14 16 10 16 Q 6 16 6 14 Z" fill="none" stroke="#34d399" stroke-width="1.5"/>
        <text x="22" y="12" class="emerald tiny">저장 시 즉시 암호화</text>
      </g>
    </g>

    <!-- Provider 드롭다운 (열림) -->
    <g transform="translate(16, 86)">
      <text x="0" y="0" class="accent label">제공자 Provider</text>
      <rect x="0" y="8" width="220" height="36" class="input-bg" stroke="#00d4ff" stroke-width="2"/>
      <circle cx="18" cy="26" r="9" fill="#ffffff"/>
      <path d="M 18 22 L 18 30 M 14 26 L 22 26" stroke="#0f3460" stroke-width="1.5"/>
      <text x="34" y="31" class="white input-txt">GitHub</text>
      <path d="M 200 28 L 208 28 L 204 23 Z" fill="#7fd4ff"/>
      <!-- 드롭다운 목록 -->
      <g transform="translate(0, 46)">
        <rect x="0" y="0" width="220" height="108" fill="#0f3460" stroke="#00d4ff" stroke-width="2"/>
        <!-- 항목 1: GitHub (선택) -->
        <rect x="0" y="0" width="220" height="34" fill="rgba(0,212,255,0.18)"/>
        <circle cx="18" cy="17" r="7" fill="#ffffff"/>
        <text x="32" y="21" class="white input-txt">GitHub</text>
        <text x="130" y="21" class="dim tiny">github.com</text>
        <text x="200" y="21" class="accent small">✓</text>
        <!-- 항목 2: GitLab -->
        <rect x="0" y="36" width="220" height="34" fill="none"/>
        <path d="M 12 48 L 18 42 L 24 48 L 18 57 Z" fill="#fc6d26"/>
        <text x="32" y="57" class="white input-txt">GitLab</text>
        <text x="130" y="57" class="dim tiny">gitlab.com</text>
        <!-- 항목 3: 자체 호스팅 -->
        <rect x="0" y="72" width="220" height="34" fill="none"/>
        <rect x="12" y="82" width="14" height="10" fill="none" stroke="#7fd4ff" stroke-width="1.5"/>
        <rect x="15" y="86" width="3" height="3" fill="#7fd4ff"/>
        <text x="32" y="91" class="white input-txt" font-size="11">자체 호스팅 +</text>
        <text x="130" y="91" class="dim tiny">Enterprise</text>
      </g>
    </g>

    <!-- 라벨 입력 (포커스) -->
    <g transform="translate(250, 86)">
      <text x="0" y="0" class="accent label">라벨 Label</text>
      <rect x="0" y="8" width="220" height="36" class="input-bg" stroke="#00d4ff" stroke-width="2"/>
      <text x="10" y="31" class="white input-txt">회사 GitHub</text>
      <!-- 커서 깜박임 -->
      <line x1="120" y1="14" x2="120" y2="38" stroke="#00d4ff" stroke-width="1.5">
        <animate attributeName="opacity" values="0;1;0" dur="1s" repeatCount="indefinite"/>
      </line>
      <text x="0" y="62" class="dim tiny">* 80자 이내 · 식별용 표시 라벨</text>
    </g>

    <!-- 토큰 입력 (프리픽스 경고) -->
    <g transform="translate(250, 160)">
      <text x="0" y="0" class="accent label">액세스 토큰</text>
      <text x="90" y="0" class="amber tiny">· 프리픽스 경고</text>
      <rect x="0" y="8" width="220" height="36" class="input-bg" stroke="#fbbf24" stroke-width="2"/>
      <text x="10" y="31" class="white input-txt">glpat-abc123...</text>
      <!-- 마스킹 토글 (눈) -->
      <g transform="translate(190, 20)">
        <ellipse cx="12" cy="8" rx="9" ry="5" fill="none" stroke="#00d4ff" stroke-width="1.5"/>
        <circle cx="12" cy="8" r="2" fill="#00d4ff"/>
      </g>
      <text x="0" y="60" class="amber tiny">⚠ GitHub 토큰은 보통 ghp_ 로 시작합니다. 제공자 선택을 확인하세요.</text>
    </g>

    <!-- 작업 버튼 (저장 가능 상태) -->
    <g transform="translate(16, 360)">
      <rect x="0" y="0" width="220" height="42" fill="#00d4ff"/>
      <rect x="0" y="40" width="220" height="2" fill="#0099cc"/>
      <text x="34" y="26" font-size="12" font-weight="bold" fill="#000000" letter-spacing="0.1em">💾 암호화 후 저장</text>
      <rect x="232" y="0" width="110" height="42" fill="rgba(107,114,128,0.6)"/>
      <rect x="232" y="40" width="110" height="2" fill="rgba(55,65,81,0.8)"/>
      <text x="264" y="26" font-size="11" font-weight="bold" fill="#ffffff" letter-spacing="0.08em">취소</text>
      <!-- 도움말 -->
      <text x="354" y="26" class="dim tiny">Enter 로 저장 · Esc 로 취소</text>
    </g>
  </g>

  <!-- ═════════════════════════════════════════ ③ 삭제 확인 모달 -->
  <g transform="translate(32, 530)">
    <text x="0" y="0" class="accent label">③ 삭제 확인 모달 — 백드롭 + 위험 경고</text>
    <rect x="0" y="10" width="500" height="430" fill="rgba(0,0,0,0.75)"/>
    <rect x="0" y="10" width="500" height="430" class="px-border-dim"/>

    <!-- 배경의 가려진 패널 힌트 -->
    <g opacity="0.25">
      <rect x="24" y="40" width="452" height="40" class="panel-bg"/>
      <rect x="24" y="40" width="452" height="40" class="px-border-dim"/>
    </g>

    <!-- 모달 박스 (중앙) -->
    <g transform="translate(50, 110)">
      <rect x="0" y="0" width="400" height="256" fill="#0f3460"/>
      <rect x="0" y="0" width="400" height="256" stroke="#f87171" stroke-width="3" fill="none"/>
      <!-- 상단 빨간 스트립 -->
      <rect x="0" y="0" width="400" height="6" fill="#f87171"/>

      <!-- 아이콘 + 타이틀 -->
      <g transform="translate(20, 26)">
        <circle cx="18" cy="18" r="16" fill="rgba(248,113,113,0.2)" stroke="#f87171" stroke-width="2"/>
        <text x="14" y="24" font-size="18" fill="#f87171" font-weight="bold">!</text>
        <text x="46" y="16" class="red h2">연동 삭제</text>
        <text x="46" y="32" class="mute tiny">되돌릴 수 없는 작업입니다</text>
      </g>

      <!-- 본문 -->
      <g transform="translate(20, 80)">
        <text x="0" y="0" class="white small">다음 Git 연동을 정말로 삭제하시겠습니까?</text>
        <rect x="0" y="12" width="360" height="44" fill="rgba(0,0,0,0.45)" stroke="rgba(255,255,255,0.25)" stroke-width="1"/>
        <circle cx="18" cy="34" r="8" fill="#ffffff"/>
        <text x="32" y="30" class="white small" font-weight="bold">회사 GitHub</text>
        <text x="32" y="44" class="mute tiny">github · ghp_••••(40자) · 3 저장소 연결됨</text>

        <text x="0" y="80" class="red tiny">• 저장된 토큰이 서버에서 영구 삭제됩니다 (복원 불가)</text>
        <text x="0" y="96" class="red tiny">• 이 연동으로 가져온 3개 프로젝트의 자동 커밋/푸시가 즉시 중단됩니다</text>
        <text x="0" y="112" class="red tiny">• 되돌리려면 GitHub 에서 새 토큰을 발급해 다시 등록해야 합니다</text>
      </g>

      <!-- 확인 입력 (타이핑 요구) -->
      <g transform="translate(20, 202)">
        <text x="0" y="0" class="mute tiny">계속하려면 <tspan fill="#f87171" font-weight="bold" font-family="Consolas, monospace">회사 GitHub</tspan> 을 입력하세요</text>
        <rect x="0" y="8" width="224" height="28" class="input-bg" stroke="rgba(248,113,113,0.6)" stroke-width="2"/>
        <text x="8" y="27" class="input-txt" fill="rgba(255,255,255,0.4)">라벨 입력…</text>
      </g>

      <!-- 버튼 (삭제 비활성) -->
      <g transform="translate(240, 204)">
        <rect x="0" y="8" width="68" height="32" fill="rgba(107,114,128,0.6)"/>
        <text x="20" y="28" font-size="10" fill="#ffffff" font-weight="bold">취소</text>
        <rect x="76" y="8" width="84" height="32" fill="rgba(248,113,113,0.35)"/>
        <text x="92" y="28" font-size="10" fill="rgba(255,255,255,0.55)" font-weight="bold">🗑 삭제</text>
        <text x="76" y="52" class="dim tiny" font-size="8">(라벨 일치 시 활성)</text>
      </g>
    </g>
  </g>

  <!-- ═════════════════════════════════════════ ④ 상태 매트릭스 -->
  <g transform="translate(548, 530)">
    <text x="0" y="0" class="accent label">④ 배지/상태 매트릭스 — 일관된 시각 언어</text>
    <rect x="0" y="10" width="500" height="430" class="deep-bg"/>
    <rect x="0" y="10" width="500" height="430" class="px-border-dim"/>

    <!-- 컬럼 헤더 -->
    <g transform="translate(16, 34)">
      <text x="0" y="0" class="mute label">상태</text>
      <text x="120" y="0" class="mute label">배지</text>
      <text x="280" y="0" class="mute label">의미</text>
    </g>

    <!-- 행 1: 저장됨 -->
    <g transform="translate(16, 56)">
      <text x="0" y="14" class="white small">저장됨</text>
      <rect x="120" y="0" width="90" height="22" class="emerald-bg"/>
      <text x="128" y="15" class="emerald tiny" font-weight="bold">✓ 저장됨</text>
      <text x="280" y="14" class="mute tiny">서버 DB 에 암호화 기록됨 · 정상 상태</text>
    </g>

    <!-- 행 2: 미저장 -->
    <g transform="translate(16, 94)">
      <text x="0" y="14" class="white small">미저장</text>
      <rect x="120" y="0" width="90" height="22" class="amber-bg"/>
      <text x="128" y="15" class="amber tiny" font-weight="bold">⚠ 미저장</text>
      <text x="280" y="14" class="mute tiny">입력 변경 후 저장 버튼 미클릭 · 주의 유도</text>
    </g>

    <!-- 행 3: 만료 임박 -->
    <g transform="translate(16, 132)">
      <text x="0" y="14" class="white small">만료 임박</text>
      <rect x="120" y="0" width="110" height="22" fill="rgba(251,146,60,0.15)" stroke="#fb923c" stroke-width="2"/>
      <text x="128" y="15" fill="#fb923c" class="tiny" font-weight="bold">⏱ 만료 D-7</text>
      <text x="280" y="14" class="mute tiny">GitHub 토큰 만료까지 7일 이하 · 갱신 권고</text>
    </g>

    <!-- 행 4: 유효성 검사 실패 -->
    <g transform="translate(16, 170)">
      <text x="0" y="14" class="white small">검증 실패</text>
      <rect x="120" y="0" width="110" height="22" class="red-bg"/>
      <text x="128" y="15" class="red tiny" font-weight="bold">✕ 401 인증 실패</text>
      <text x="280" y="14" class="mute tiny">서버 연결 테스트 시 인증 거부 · 재발급 필요</text>
    </g>

    <!-- 행 5: 전송 중 -->
    <g transform="translate(16, 208)">
      <text x="0" y="14" class="white small">전송 중</text>
      <rect x="120" y="0" width="110" height="22" fill="rgba(96,165,250,0.15)" stroke="#60a5fa" stroke-width="2">
        <animate attributeName="opacity" values="0.6;1;0.6" dur="1.4s" repeatCount="indefinite"/>
      </rect>
      <text x="128" y="15" fill="#60a5fa" class="tiny" font-weight="bold">◔ 암호화 중…</text>
      <text x="280" y="14" class="mute tiny">POST /api/integrations 진행 중 · 1~2초</text>
    </g>

    <!-- 구분선 -->
    <line x1="16" y1="248" x2="484" y2="248" stroke="rgba(255,255,255,0.15)" stroke-width="1" stroke-dasharray="2 3"/>

    <!-- 카피 섹션 -->
    <g transform="translate(16, 264)">
      <text x="0" y="0" class="accent label">카피 문구 (보안 커뮤니케이션)</text>
      <g transform="translate(0, 14)">
        <text x="0" y="14" class="white small">• 인풋 하단 도움말:</text>
        <text x="12" y="30" class="mute tiny">"토큰은 서버에서 AES-256-GCM 으로 암호화되어 저장되며, UI 에는 다시 노출되지 않습니다."</text>
      </g>
      <g transform="translate(0, 48)">
        <text x="0" y="14" class="white small">• 저장 버튼 라벨:</text>
        <text x="12" y="30" class="mute tiny">"💾 암호화 후 저장" — '저장' 단독 대신 '암호화' 를 명시해 처리 과정을 드러낸다.</text>
      </g>
      <g transform="translate(0, 82)">
        <text x="0" y="14" class="white small">• 마스킹 표시 규약:</text>
        <text x="12" y="30" class="mute tiny">maskToken 유틸 재사용 — "ghp_••••(40자)" 형태로 프리픽스 4자 + 길이만 노출.</text>
      </g>
      <g transform="translate(0, 116)">
        <text x="0" y="14" class="white small">• 삭제 확인 문구:</text>
        <text x="12" y="30" class="mute tiny">"되돌릴 수 없는 작업" + 라벨 타이핑 요구로 휴먼 에러 방어.</text>
      </g>
    </g>
  </g>

  <!-- ═════════════════════════════════════════ ⑤ 팔레트 레전드 -->
  <g transform="translate(32, 970)">
    <text x="0" y="0" class="mute tiny">팔레트:</text>
    <rect x="50" y="-10" width="12" height="12" fill="#00d4ff"/>
    <text x="66" y="0" class="mute tiny">accent (#00d4ff)</text>
    <rect x="180" y="-10" width="12" height="12" fill="#0f3460"/>
    <text x="196" y="0" class="mute tiny">panel (#0f3460)</text>
    <rect x="310" y="-10" width="12" height="12" fill="#34d399"/>
    <text x="326" y="0" class="mute tiny">success (#34d399)</text>
    <rect x="450" y="-10" width="12" height="12" fill="#fbbf24"/>
    <text x="466" y="0" class="mute tiny">warn (#fbbf24)</text>
    <rect x="570" y="-10" width="12" height="12" fill="#fb923c"/>
    <text x="586" y="0" class="mute tiny">expiring (#fb923c)</text>
    <rect x="700" y="-10" width="12" height="12" fill="#f87171"/>
    <text x="716" y="0" class="mute tiny">danger (#f87171)</text>
    <rect x="830" y="-10" width="12" height="12" fill="#60a5fa"/>
    <text x="846" y="0" class="mute tiny">in-flight (#60a5fa)</text>
  </g>
</svg>
